<mxfile host="Electron" agent="Mozilla/5.0 (Windows NT 10.0; Win64; x64) AppleWebKit/537.36 (KHTML, like Gecko) draw.io/26.2.2 Chrome/134.0.6998.178 Electron/35.1.2 Safari/537.36" version="26.2.2">
  <diagram id="7AabvcQ5PqK9tYl_Zeco" name="Page-1">
    <mxGraphModel dx="1345" dy="1111" grid="1" gridSize="10" guides="1" tooltips="1" connect="1" arrows="1" fold="1" page="1" pageScale="1" pageWidth="827" pageHeight="1169" math="0" shadow="0">
      <root>
        <mxCell id="0" />
        <mxCell id="1" parent="0" />
        <mxCell id="e1KFGeW7uWI1qzYVCgny-10" value="&lt;div&gt;{ abstract }&lt;/div&gt;&lt;div&gt;Person&lt;/div&gt;" style="shape=umlActor;verticalLabelPosition=bottom;verticalAlign=top;html=1;outlineConnect=0;" vertex="1" parent="1">
          <mxGeometry x="400" y="920" width="30" height="59" as="geometry" />
        </mxCell>
        <mxCell id="e1KFGeW7uWI1qzYVCgny-11" style="edgeStyle=orthogonalEdgeStyle;rounded=0;orthogonalLoop=1;jettySize=auto;html=1;exitX=0.5;exitY=0;exitDx=0;exitDy=0;exitPerimeter=0;" edge="1" parent="1" source="e1KFGeW7uWI1qzYVCgny-35">
          <mxGeometry relative="1" as="geometry">
            <mxPoint x="417" y="1030" as="targetPoint" />
          </mxGeometry>
        </mxCell>
        <mxCell id="e1KFGeW7uWI1qzYVCgny-12" value="" style="endArrow=none;html=1;rounded=0;entryX=0;entryY=0.5;entryDx=0;entryDy=0;" edge="1" parent="1" source="e1KFGeW7uWI1qzYVCgny-10" target="e1KFGeW7uWI1qzYVCgny-25">
          <mxGeometry relative="1" as="geometry">
            <mxPoint x="466" y="960" as="sourcePoint" />
            <mxPoint x="721" y="829" as="targetPoint" />
          </mxGeometry>
        </mxCell>
        <mxCell id="e1KFGeW7uWI1qzYVCgny-13" value="*" style="resizable=0;html=1;whiteSpace=wrap;align=right;verticalAlign=bottom;" connectable="0" vertex="1" parent="e1KFGeW7uWI1qzYVCgny-12">
          <mxGeometry x="1" relative="1" as="geometry" />
        </mxCell>
        <mxCell id="e1KFGeW7uWI1qzYVCgny-14" value="*" style="text;html=1;align=center;verticalAlign=middle;resizable=0;points=[];autosize=1;strokeColor=none;fillColor=none;" vertex="1" parent="1">
          <mxGeometry x="425" y="918" width="30" height="30" as="geometry" />
        </mxCell>
        <mxCell id="e1KFGeW7uWI1qzYVCgny-15" value="" style="swimlane;startSize=0;" vertex="1" parent="1">
          <mxGeometry x="530" y="640" width="1079.25" height="1590" as="geometry" />
        </mxCell>
        <mxCell id="e1KFGeW7uWI1qzYVCgny-16" value="&lt;font style=&quot;font-size: 36px;&quot;&gt;Echo Gifts&lt;/font&gt;" style="text;html=1;align=center;verticalAlign=middle;resizable=0;points=[];autosize=1;strokeColor=none;fillColor=none;" vertex="1" parent="e1KFGeW7uWI1qzYVCgny-15">
          <mxGeometry x="439.1" y="10" width="190" height="60" as="geometry" />
        </mxCell>
        <mxCell id="e1KFGeW7uWI1qzYVCgny-17" value="Contact support" style="shape=ellipse;" vertex="1" parent="e1KFGeW7uWI1qzYVCgny-15">
          <mxGeometry x="490" y="136" width="120" height="39" as="geometry" />
        </mxCell>
        <mxCell id="e1KFGeW7uWI1qzYVCgny-18" value="N...." style="text;html=1;align=center;verticalAlign=middle;resizable=0;points=[];autosize=1;strokeColor=none;fillColor=none;" vertex="1" parent="e1KFGeW7uWI1qzYVCgny-15">
          <mxGeometry x="430.75" y="136" width="50" height="30" as="geometry" />
        </mxCell>
        <mxCell id="e1KFGeW7uWI1qzYVCgny-19" value="View testimonials" style="shape=ellipse;" vertex="1" parent="e1KFGeW7uWI1qzYVCgny-15">
          <mxGeometry x="740.75" y="330" width="130" height="49" as="geometry" />
        </mxCell>
        <mxCell id="e1KFGeW7uWI1qzYVCgny-20" value="View FAQ section" style="shape=ellipse;" vertex="1" parent="e1KFGeW7uWI1qzYVCgny-15">
          <mxGeometry x="576" y="241" width="130" height="49" as="geometry" />
        </mxCell>
        <mxCell id="e1KFGeW7uWI1qzYVCgny-21" value="View &#39;About Us&#39; page" style="shape=ellipse;" vertex="1" parent="e1KFGeW7uWI1qzYVCgny-15">
          <mxGeometry x="770.75" y="260" width="150" height="49" as="geometry" />
        </mxCell>
        <mxCell id="e1KFGeW7uWI1qzYVCgny-22" value="Report inappropriate content" style="shape=ellipse;" vertex="1" parent="e1KFGeW7uWI1qzYVCgny-15">
          <mxGeometry x="760" y="107" width="180" height="59" as="geometry" />
        </mxCell>
        <mxCell id="e1KFGeW7uWI1qzYVCgny-23" value="Search for specific Category" style="shape=ellipse;" vertex="1" parent="e1KFGeW7uWI1qzYVCgny-15">
          <mxGeometry x="730.75" y="200" width="184.25" height="50" as="geometry" />
        </mxCell>
        <mxCell id="e1KFGeW7uWI1qzYVCgny-24" value="View item details" style="shape=ellipse;" vertex="1" parent="e1KFGeW7uWI1qzYVCgny-15">
          <mxGeometry x="620.75" y="166" width="120" height="39" as="geometry" />
        </mxCell>
        <mxCell id="e1KFGeW7uWI1qzYVCgny-25" value="Browse available gifts" style="shape=ellipse;" vertex="1" parent="e1KFGeW7uWI1qzYVCgny-15">
          <mxGeometry x="158.25" y="140" width="190" height="49" as="geometry" />
        </mxCell>
        <mxCell id="e1KFGeW7uWI1qzYVCgny-26" value="Search for specific items" style="shape=ellipse;" vertex="1" parent="e1KFGeW7uWI1qzYVCgny-15">
          <mxGeometry x="451.75" y="290" width="150" height="49" as="geometry" />
        </mxCell>
        <mxCell id="e1KFGeW7uWI1qzYVCgny-27" value="Track Analytics" style="shape=ellipse;" vertex="1" parent="e1KFGeW7uWI1qzYVCgny-15">
          <mxGeometry x="560" y="1440" width="130" height="49" as="geometry" />
        </mxCell>
        <mxCell id="e1KFGeW7uWI1qzYVCgny-28" value="Create a new group" style="shape=ellipse;" vertex="1" parent="e1KFGeW7uWI1qzYVCgny-15">
          <mxGeometry x="390" y="1350" width="134.75" height="49" as="geometry" />
        </mxCell>
        <mxCell id="e1KFGeW7uWI1qzYVCgny-29" value="View group details" style="shape=ellipse;" vertex="1" parent="e1KFGeW7uWI1qzYVCgny-15">
          <mxGeometry x="213.5" y="1340" width="124.75" height="59" as="geometry" />
        </mxCell>
        <mxCell id="e1KFGeW7uWI1qzYVCgny-30" value="Manage users accounts" style="shape=ellipse;" vertex="1" parent="e1KFGeW7uWI1qzYVCgny-15">
          <mxGeometry x="706" y="1489" width="160" height="54" as="geometry" />
        </mxCell>
        <mxCell id="e1KFGeW7uWI1qzYVCgny-31" value="Approve or reject gift listings" style="shape=ellipse;" vertex="1" parent="e1KFGeW7uWI1qzYVCgny-15">
          <mxGeometry x="518.25" y="1370" width="180" height="64" as="geometry" />
        </mxCell>
        <mxCell id="e1KFGeW7uWI1qzYVCgny-32" value="Monitor Bug Reports" style="shape=ellipse;" vertex="1" parent="e1KFGeW7uWI1qzYVCgny-15">
          <mxGeometry x="380" y="1488" width="127.75" height="55" as="geometry" />
        </mxCell>
        <mxCell id="e1KFGeW7uWI1qzYVCgny-33" value="Handle reported content" style="shape=ellipse;" vertex="1" parent="e1KFGeW7uWI1qzYVCgny-15">
          <mxGeometry x="60" y="1321" width="150" height="49" as="geometry" />
        </mxCell>
        <mxCell id="e1KFGeW7uWI1qzYVCgny-34" value="Configure site settings" style="shape=ellipse;" vertex="1" parent="e1KFGeW7uWI1qzYVCgny-15">
          <mxGeometry x="148.25" y="1500" width="130" height="49" as="geometry" />
        </mxCell>
        <mxCell id="e1KFGeW7uWI1qzYVCgny-35" value="User" style="shape=umlActor;verticalLabelPosition=bottom;verticalAlign=top;html=1;outlineConnect=0;" vertex="1" parent="e1KFGeW7uWI1qzYVCgny-15">
          <mxGeometry x="-127.7499999999992" y="923.9299999999998" width="30" height="61.5" as="geometry" />
        </mxCell>
        <mxCell id="e1KFGeW7uWI1qzYVCgny-36" value="Post a new giftÂ " style="shape=ellipse;" vertex="1" parent="e1KFGeW7uWI1qzYVCgny-15">
          <mxGeometry x="28.25" y="847.1800000000001" width="130" height="39" as="geometry" />
        </mxCell>
        <mxCell id="e1KFGeW7uWI1qzYVCgny-37" value="Request a gift" style="shape=ellipse;" vertex="1" parent="e1KFGeW7uWI1qzYVCgny-15">
          <mxGeometry x="28.25" y="1151.18" width="120" height="39" as="geometry" />
        </mxCell>
        <mxCell id="e1KFGeW7uWI1qzYVCgny-38" value="Accept a gift request" style="shape=ellipse;" vertex="1" parent="e1KFGeW7uWI1qzYVCgny-15">
          <mxGeometry x="40.75" y="1090" width="140" height="49" as="geometry" />
        </mxCell>
        <mxCell id="e1KFGeW7uWI1qzYVCgny-39" value="View received requests" style="shape=ellipse;" vertex="1" parent="e1KFGeW7uWI1qzYVCgny-15">
          <mxGeometry x="198.25" y="1111.68" width="140" height="49" as="geometry" />
        </mxCell>
        <mxCell id="e1KFGeW7uWI1qzYVCgny-40" value="Edit profile information" style="shape=ellipse;" vertex="1" parent="e1KFGeW7uWI1qzYVCgny-15">
          <mxGeometry x="822.25" y="847.1800000000001" width="150" height="44" as="geometry" />
        </mxCell>
        <mxCell id="e1KFGeW7uWI1qzYVCgny-41" value="Edit existing gift listings" style="shape=ellipse;" vertex="1" parent="e1KFGeW7uWI1qzYVCgny-15">
          <mxGeometry x="923" y="1030" width="140" height="54" as="geometry" />
        </mxCell>
        <mxCell id="e1KFGeW7uWI1qzYVCgny-42" value="View personal dashboard" style="shape=ellipse;" vertex="1" parent="e1KFGeW7uWI1qzYVCgny-15">
          <mxGeometry x="888.25" y="920" width="150" height="59" as="geometry" />
        </mxCell>
        <mxCell id="e1KFGeW7uWI1qzYVCgny-43" value="Log out" style="shape=ellipse;" vertex="1" parent="e1KFGeW7uWI1qzYVCgny-15">
          <mxGeometry x="957" y="817.5" width="98.5" height="39" as="geometry" />
        </mxCell>
        <mxCell id="e1KFGeW7uWI1qzYVCgny-44" value="Change Password" style="shape=ellipse;" vertex="1" parent="e1KFGeW7uWI1qzYVCgny-15">
          <mxGeometry x="702.25" y="799.93" width="130" height="47.25" as="geometry" />
        </mxCell>
        <mxCell id="e1KFGeW7uWI1qzYVCgny-45" value="View sent requests" style="shape=ellipse;" vertex="1" parent="e1KFGeW7uWI1qzYVCgny-15">
          <mxGeometry x="678.25" y="901.9300000000001" width="133" height="49" as="geometry" />
        </mxCell>
        <mxCell id="e1KFGeW7uWI1qzYVCgny-46" value="Track gift delivery status" style="shape=ellipse;" vertex="1" parent="e1KFGeW7uWI1qzYVCgny-15">
          <mxGeometry x="578.25" y="1121.18" width="150" height="49" as="geometry" />
        </mxCell>
        <mxCell id="e1KFGeW7uWI1qzYVCgny-47" value="Receive messages from other users" style="shape=ellipse;" vertex="1" parent="e1KFGeW7uWI1qzYVCgny-15">
          <mxGeometry x="668.25" y="974.9300000000001" width="220" height="61.5" as="geometry" />
        </mxCell>
        <mxCell id="e1KFGeW7uWI1qzYVCgny-48" value="Change privacy settings" style="shape=ellipse;" vertex="1" parent="e1KFGeW7uWI1qzYVCgny-15">
          <mxGeometry x="748.25" y="1062.68" width="160" height="49" as="geometry" />
        </mxCell>
        <mxCell id="e1KFGeW7uWI1qzYVCgny-49" style="edgeStyle=orthogonalEdgeStyle;rounded=0;orthogonalLoop=1;jettySize=auto;html=1;exitX=0.5;exitY=1;exitDx=0;exitDy=0;" edge="1" parent="e1KFGeW7uWI1qzYVCgny-15" source="e1KFGeW7uWI1qzYVCgny-48" target="e1KFGeW7uWI1qzYVCgny-48">
          <mxGeometry relative="1" as="geometry" />
        </mxCell>
        <mxCell id="e1KFGeW7uWI1qzYVCgny-50" value="Send messages to other users" style="shape=ellipse;" vertex="1" parent="e1KFGeW7uWI1qzYVCgny-15">
          <mxGeometry x="365" y="1117" width="195" height="69" as="geometry" />
        </mxCell>
        <mxCell id="e1KFGeW7uWI1qzYVCgny-51" value="Delete Account" style="shape=ellipse;" vertex="1" parent="e1KFGeW7uWI1qzYVCgny-15">
          <mxGeometry x="472.6" y="790" width="123" height="51.5" as="geometry" />
        </mxCell>
        <mxCell id="e1KFGeW7uWI1qzYVCgny-52" value="Add gift to favourites&#39;" style="shape=ellipse;" vertex="1" parent="e1KFGeW7uWI1qzYVCgny-15">
          <mxGeometry x="915.5" y="1121.18" width="140" height="56.5" as="geometry" />
        </mxCell>
        <mxCell id="e1KFGeW7uWI1qzYVCgny-53" value="Delete gift listings" style="shape=ellipse;" vertex="1" parent="e1KFGeW7uWI1qzYVCgny-15">
          <mxGeometry x="532.25" y="891.18" width="120" height="39" as="geometry" />
        </mxCell>
        <mxCell id="e1KFGeW7uWI1qzYVCgny-54" value="" style="endArrow=none;html=1;rounded=0;" edge="1" parent="e1KFGeW7uWI1qzYVCgny-15" source="e1KFGeW7uWI1qzYVCgny-35" target="e1KFGeW7uWI1qzYVCgny-36">
          <mxGeometry relative="1" as="geometry">
            <mxPoint x="-237.7499999999992" y="678" as="sourcePoint" />
            <mxPoint x="277.2500000000008" y="697" as="targetPoint" />
          </mxGeometry>
        </mxCell>
        <mxCell id="e1KFGeW7uWI1qzYVCgny-55" value="*" style="resizable=0;html=1;whiteSpace=wrap;align=right;verticalAlign=bottom;" connectable="0" vertex="1" parent="e1KFGeW7uWI1qzYVCgny-54">
          <mxGeometry x="1" relative="1" as="geometry" />
        </mxCell>
        <mxCell id="e1KFGeW7uWI1qzYVCgny-56" value="" style="endArrow=none;html=1;rounded=0;" edge="1" parent="e1KFGeW7uWI1qzYVCgny-15" source="e1KFGeW7uWI1qzYVCgny-35" target="e1KFGeW7uWI1qzYVCgny-37">
          <mxGeometry relative="1" as="geometry">
            <mxPoint x="-75.2499999999992" y="750" as="sourcePoint" />
            <mxPoint x="439.7500000000008" y="769" as="targetPoint" />
          </mxGeometry>
        </mxCell>
        <mxCell id="e1KFGeW7uWI1qzYVCgny-57" value="N" style="resizable=0;html=1;whiteSpace=wrap;align=right;verticalAlign=bottom;" connectable="0" vertex="1" parent="e1KFGeW7uWI1qzYVCgny-56">
          <mxGeometry x="1" relative="1" as="geometry" />
        </mxCell>
        <mxCell id="e1KFGeW7uWI1qzYVCgny-58" value="" style="endArrow=none;html=1;rounded=0;" edge="1" parent="e1KFGeW7uWI1qzYVCgny-15" source="e1KFGeW7uWI1qzYVCgny-35" target="e1KFGeW7uWI1qzYVCgny-38">
          <mxGeometry relative="1" as="geometry">
            <mxPoint x="88.2500000000008" y="730" as="sourcePoint" />
            <mxPoint x="603.2500000000008" y="749" as="targetPoint" />
          </mxGeometry>
        </mxCell>
        <mxCell id="e1KFGeW7uWI1qzYVCgny-59" value="N" style="resizable=0;html=1;whiteSpace=wrap;align=right;verticalAlign=bottom;" connectable="0" vertex="1" parent="e1KFGeW7uWI1qzYVCgny-58">
          <mxGeometry x="1" relative="1" as="geometry" />
        </mxCell>
        <mxCell id="e1KFGeW7uWI1qzYVCgny-60" value="*" style="text;html=1;align=center;verticalAlign=middle;resizable=0;points=[];autosize=1;strokeColor=none;fillColor=none;" vertex="1" parent="e1KFGeW7uWI1qzYVCgny-15">
          <mxGeometry x="-97.7499999999992" y="920" width="30" height="30" as="geometry" />
        </mxCell>
        <mxCell id="e1KFGeW7uWI1qzYVCgny-61" value="" style="endArrow=none;html=1;rounded=0;entryX=0;entryY=0.5;entryDx=0;entryDy=0;" edge="1" parent="e1KFGeW7uWI1qzYVCgny-15" source="e1KFGeW7uWI1qzYVCgny-35" target="e1KFGeW7uWI1qzYVCgny-53">
          <mxGeometry relative="1" as="geometry">
            <mxPoint x="-207.7499999999992" y="708" as="sourcePoint" />
            <mxPoint x="307.2500000000008" y="727" as="targetPoint" />
          </mxGeometry>
        </mxCell>
        <mxCell id="e1KFGeW7uWI1qzYVCgny-62" value="N" style="resizable=0;html=1;whiteSpace=wrap;align=right;verticalAlign=bottom;" connectable="0" vertex="1" parent="e1KFGeW7uWI1qzYVCgny-61">
          <mxGeometry x="1" relative="1" as="geometry" />
        </mxCell>
        <mxCell id="e1KFGeW7uWI1qzYVCgny-63" value="" style="endArrow=none;html=1;rounded=0;" edge="1" parent="e1KFGeW7uWI1qzYVCgny-15" source="e1KFGeW7uWI1qzYVCgny-35" target="e1KFGeW7uWI1qzYVCgny-39">
          <mxGeometry relative="1" as="geometry">
            <mxPoint x="-197.7499999999992" y="718" as="sourcePoint" />
            <mxPoint x="317.2500000000008" y="737" as="targetPoint" />
          </mxGeometry>
        </mxCell>
        <mxCell id="e1KFGeW7uWI1qzYVCgny-64" value="*" style="resizable=0;html=1;whiteSpace=wrap;align=right;verticalAlign=bottom;" connectable="0" vertex="1" parent="e1KFGeW7uWI1qzYVCgny-63">
          <mxGeometry x="1" relative="1" as="geometry" />
        </mxCell>
        <mxCell id="e1KFGeW7uWI1qzYVCgny-65" value="" style="endArrow=none;html=1;rounded=0;entryX=0;entryY=0.5;entryDx=0;entryDy=0;" edge="1" parent="e1KFGeW7uWI1qzYVCgny-15" source="e1KFGeW7uWI1qzYVCgny-35" target="e1KFGeW7uWI1qzYVCgny-40">
          <mxGeometry relative="1" as="geometry">
            <mxPoint x="-187.7499999999992" y="728" as="sourcePoint" />
            <mxPoint x="327.2500000000008" y="747" as="targetPoint" />
          </mxGeometry>
        </mxCell>
        <mxCell id="e1KFGeW7uWI1qzYVCgny-66" value="*" style="resizable=0;html=1;whiteSpace=wrap;align=right;verticalAlign=bottom;" connectable="0" vertex="1" parent="e1KFGeW7uWI1qzYVCgny-65">
          <mxGeometry x="1" relative="1" as="geometry">
            <mxPoint x="26" as="offset" />
          </mxGeometry>
        </mxCell>
        <mxCell id="e1KFGeW7uWI1qzYVCgny-67" value="" style="endArrow=none;html=1;rounded=0;entryX=0;entryY=0.5;entryDx=0;entryDy=0;" edge="1" parent="e1KFGeW7uWI1qzYVCgny-15" source="e1KFGeW7uWI1qzYVCgny-35" target="e1KFGeW7uWI1qzYVCgny-41">
          <mxGeometry relative="1" as="geometry">
            <mxPoint x="-177.7499999999992" y="738" as="sourcePoint" />
            <mxPoint x="337.2500000000008" y="757" as="targetPoint" />
          </mxGeometry>
        </mxCell>
        <mxCell id="e1KFGeW7uWI1qzYVCgny-68" value="*" style="resizable=0;html=1;whiteSpace=wrap;align=right;verticalAlign=bottom;" connectable="0" vertex="1" parent="e1KFGeW7uWI1qzYVCgny-67">
          <mxGeometry x="1" relative="1" as="geometry" />
        </mxCell>
        <mxCell id="e1KFGeW7uWI1qzYVCgny-69" value="" style="endArrow=none;html=1;rounded=0;" edge="1" parent="e1KFGeW7uWI1qzYVCgny-15" source="e1KFGeW7uWI1qzYVCgny-35" target="e1KFGeW7uWI1qzYVCgny-42">
          <mxGeometry relative="1" as="geometry">
            <mxPoint x="-167.7499999999992" y="748" as="sourcePoint" />
            <mxPoint x="347.2500000000008" y="767" as="targetPoint" />
          </mxGeometry>
        </mxCell>
        <mxCell id="e1KFGeW7uWI1qzYVCgny-70" value="*" style="resizable=0;html=1;whiteSpace=wrap;align=right;verticalAlign=bottom;" connectable="0" vertex="1" parent="e1KFGeW7uWI1qzYVCgny-69">
          <mxGeometry x="1" relative="1" as="geometry" />
        </mxCell>
        <mxCell id="e1KFGeW7uWI1qzYVCgny-71" value="" style="endArrow=none;html=1;rounded=0;entryX=0;entryY=0.5;entryDx=0;entryDy=0;" edge="1" parent="e1KFGeW7uWI1qzYVCgny-15" source="e1KFGeW7uWI1qzYVCgny-35" target="e1KFGeW7uWI1qzYVCgny-43">
          <mxGeometry relative="1" as="geometry">
            <mxPoint x="-157.7499999999992" y="758" as="sourcePoint" />
            <mxPoint x="357.2500000000008" y="777" as="targetPoint" />
          </mxGeometry>
        </mxCell>
        <mxCell id="e1KFGeW7uWI1qzYVCgny-72" value="1" style="resizable=0;html=1;whiteSpace=wrap;align=right;verticalAlign=bottom;" connectable="0" vertex="1" parent="e1KFGeW7uWI1qzYVCgny-71">
          <mxGeometry x="1" relative="1" as="geometry" />
        </mxCell>
        <mxCell id="e1KFGeW7uWI1qzYVCgny-73" value="" style="endArrow=none;html=1;rounded=0;entryX=0;entryY=0.5;entryDx=0;entryDy=0;" edge="1" parent="e1KFGeW7uWI1qzYVCgny-15" source="e1KFGeW7uWI1qzYVCgny-35" target="e1KFGeW7uWI1qzYVCgny-44">
          <mxGeometry relative="1" as="geometry">
            <mxPoint x="-147.7499999999992" y="768" as="sourcePoint" />
            <mxPoint x="367.2500000000008" y="787" as="targetPoint" />
          </mxGeometry>
        </mxCell>
        <mxCell id="e1KFGeW7uWI1qzYVCgny-74" value="1" style="resizable=0;html=1;whiteSpace=wrap;align=right;verticalAlign=bottom;" connectable="0" vertex="1" parent="e1KFGeW7uWI1qzYVCgny-73">
          <mxGeometry x="1" relative="1" as="geometry" />
        </mxCell>
        <mxCell id="e1KFGeW7uWI1qzYVCgny-75" value="" style="endArrow=none;html=1;rounded=0;entryX=0;entryY=0.5;entryDx=0;entryDy=0;" edge="1" parent="e1KFGeW7uWI1qzYVCgny-15" source="e1KFGeW7uWI1qzYVCgny-35" target="e1KFGeW7uWI1qzYVCgny-92">
          <mxGeometry relative="1" as="geometry">
            <mxPoint x="-87.7499999999992" y="886" as="sourcePoint" />
            <mxPoint x="62.2500000000008" y="790" as="targetPoint" />
          </mxGeometry>
        </mxCell>
        <mxCell id="e1KFGeW7uWI1qzYVCgny-76" value="*" style="resizable=0;html=1;whiteSpace=wrap;align=right;verticalAlign=bottom;" connectable="0" vertex="1" parent="e1KFGeW7uWI1qzYVCgny-75">
          <mxGeometry x="1" relative="1" as="geometry" />
        </mxCell>
        <mxCell id="e1KFGeW7uWI1qzYVCgny-77" value="" style="endArrow=none;html=1;rounded=0;" edge="1" parent="e1KFGeW7uWI1qzYVCgny-15" source="e1KFGeW7uWI1qzYVCgny-35" target="e1KFGeW7uWI1qzYVCgny-45">
          <mxGeometry relative="1" as="geometry">
            <mxPoint x="-77.7499999999992" y="896" as="sourcePoint" />
            <mxPoint x="72.2500000000008" y="800" as="targetPoint" />
          </mxGeometry>
        </mxCell>
        <mxCell id="e1KFGeW7uWI1qzYVCgny-78" value="*" style="resizable=0;html=1;whiteSpace=wrap;align=right;verticalAlign=bottom;" connectable="0" vertex="1" parent="e1KFGeW7uWI1qzYVCgny-77">
          <mxGeometry x="1" relative="1" as="geometry" />
        </mxCell>
        <mxCell id="e1KFGeW7uWI1qzYVCgny-79" value="" style="endArrow=none;html=1;rounded=0;" edge="1" parent="e1KFGeW7uWI1qzYVCgny-15" source="e1KFGeW7uWI1qzYVCgny-35" target="e1KFGeW7uWI1qzYVCgny-46">
          <mxGeometry relative="1" as="geometry">
            <mxPoint x="-67.7499999999992" y="906" as="sourcePoint" />
            <mxPoint x="82.2500000000008" y="810" as="targetPoint" />
          </mxGeometry>
        </mxCell>
        <mxCell id="e1KFGeW7uWI1qzYVCgny-80" value="*" style="resizable=0;html=1;whiteSpace=wrap;align=right;verticalAlign=bottom;" connectable="0" vertex="1" parent="e1KFGeW7uWI1qzYVCgny-79">
          <mxGeometry x="1" relative="1" as="geometry" />
        </mxCell>
        <mxCell id="e1KFGeW7uWI1qzYVCgny-81" value="" style="endArrow=none;html=1;rounded=0;" edge="1" parent="e1KFGeW7uWI1qzYVCgny-15" source="e1KFGeW7uWI1qzYVCgny-35" target="e1KFGeW7uWI1qzYVCgny-47">
          <mxGeometry relative="1" as="geometry">
            <mxPoint x="-57.7499999999992" y="916" as="sourcePoint" />
            <mxPoint x="92.2500000000008" y="820" as="targetPoint" />
          </mxGeometry>
        </mxCell>
        <mxCell id="e1KFGeW7uWI1qzYVCgny-82" value="*" style="resizable=0;html=1;whiteSpace=wrap;align=right;verticalAlign=bottom;" connectable="0" vertex="1" parent="e1KFGeW7uWI1qzYVCgny-81">
          <mxGeometry x="1" relative="1" as="geometry" />
        </mxCell>
        <mxCell id="e1KFGeW7uWI1qzYVCgny-83" value="" style="endArrow=none;html=1;rounded=0;" edge="1" parent="e1KFGeW7uWI1qzYVCgny-15" source="e1KFGeW7uWI1qzYVCgny-35" target="e1KFGeW7uWI1qzYVCgny-48">
          <mxGeometry relative="1" as="geometry">
            <mxPoint x="-47.7499999999992" y="926" as="sourcePoint" />
            <mxPoint x="102.2500000000008" y="830" as="targetPoint" />
          </mxGeometry>
        </mxCell>
        <mxCell id="e1KFGeW7uWI1qzYVCgny-84" value="*" style="resizable=0;html=1;whiteSpace=wrap;align=right;verticalAlign=bottom;" connectable="0" vertex="1" parent="e1KFGeW7uWI1qzYVCgny-83">
          <mxGeometry x="1" relative="1" as="geometry" />
        </mxCell>
        <mxCell id="e1KFGeW7uWI1qzYVCgny-85" value="" style="endArrow=none;html=1;rounded=0;" edge="1" parent="e1KFGeW7uWI1qzYVCgny-15" source="e1KFGeW7uWI1qzYVCgny-35" target="e1KFGeW7uWI1qzYVCgny-50">
          <mxGeometry relative="1" as="geometry">
            <mxPoint x="-37.7499999999992" y="936" as="sourcePoint" />
            <mxPoint x="112.2500000000008" y="840" as="targetPoint" />
          </mxGeometry>
        </mxCell>
        <mxCell id="e1KFGeW7uWI1qzYVCgny-86" value="*" style="resizable=0;html=1;whiteSpace=wrap;align=right;verticalAlign=bottom;" connectable="0" vertex="1" parent="e1KFGeW7uWI1qzYVCgny-85">
          <mxGeometry x="1" relative="1" as="geometry" />
        </mxCell>
        <mxCell id="e1KFGeW7uWI1qzYVCgny-87" value="" style="endArrow=none;html=1;rounded=0;entryX=0;entryY=0.5;entryDx=0;entryDy=0;" edge="1" parent="e1KFGeW7uWI1qzYVCgny-15" source="e1KFGeW7uWI1qzYVCgny-35" target="e1KFGeW7uWI1qzYVCgny-51">
          <mxGeometry relative="1" as="geometry">
            <mxPoint x="-27.749999999999197" y="1064" as="sourcePoint" />
            <mxPoint x="122.2500000000008" y="968" as="targetPoint" />
          </mxGeometry>
        </mxCell>
        <mxCell id="e1KFGeW7uWI1qzYVCgny-88" value="1" style="resizable=0;html=1;whiteSpace=wrap;align=right;verticalAlign=bottom;" connectable="0" vertex="1" parent="e1KFGeW7uWI1qzYVCgny-87">
          <mxGeometry x="1" relative="1" as="geometry" />
        </mxCell>
        <mxCell id="e1KFGeW7uWI1qzYVCgny-89" value="" style="endArrow=none;html=1;rounded=0;" edge="1" parent="e1KFGeW7uWI1qzYVCgny-15" source="e1KFGeW7uWI1qzYVCgny-35" target="e1KFGeW7uWI1qzYVCgny-52">
          <mxGeometry relative="1" as="geometry">
            <mxPoint x="-17.749999999999197" y="956" as="sourcePoint" />
            <mxPoint x="132.2500000000008" y="860" as="targetPoint" />
          </mxGeometry>
        </mxCell>
        <mxCell id="e1KFGeW7uWI1qzYVCgny-90" value="N" style="resizable=0;html=1;whiteSpace=wrap;align=right;verticalAlign=bottom;" connectable="0" vertex="1" parent="e1KFGeW7uWI1qzYVCgny-89">
          <mxGeometry x="1" relative="1" as="geometry" />
        </mxCell>
        <mxCell id="e1KFGeW7uWI1qzYVCgny-91" value="" style="endArrow=none;html=1;rounded=0;entryX=0;entryY=0.5;entryDx=0;entryDy=0;" edge="1" parent="e1KFGeW7uWI1qzYVCgny-15" source="e1KFGeW7uWI1qzYVCgny-35" target="e1KFGeW7uWI1qzYVCgny-92">
          <mxGeometry relative="1" as="geometry">
            <mxPoint x="-97.7499999999992" y="887" as="sourcePoint" />
            <mxPoint x="932.2500000000008" y="989" as="targetPoint" />
          </mxGeometry>
        </mxCell>
        <mxCell id="e1KFGeW7uWI1qzYVCgny-92" value="ViewÂ a group" style="shape=ellipse;" vertex="1" parent="e1KFGeW7uWI1qzYVCgny-15">
          <mxGeometry x="548.2500000000008" y="1078" width="120" height="39" as="geometry" />
        </mxCell>
        <mxCell id="e1KFGeW7uWI1qzYVCgny-93" value="Visitor&lt;div&gt;&lt;br&gt;&lt;/div&gt;" style="shape=umlActor;verticalLabelPosition=bottom;verticalAlign=top;html=1;outlineConnect=0;" vertex="1" parent="e1KFGeW7uWI1qzYVCgny-15">
          <mxGeometry x="-257.5" y="522.8199999999997" width="30" height="59" as="geometry" />
        </mxCell>
        <mxCell id="e1KFGeW7uWI1qzYVCgny-94" value="" style="html=1;verticalAlign=bottom;labelBackgroundColor=none;endArrow=block;endFill=1;rounded=0;exitX=0.5;exitY=0;exitDx=0;exitDy=0;exitPerimeter=0;" edge="1" parent="e1KFGeW7uWI1qzYVCgny-15" source="e1KFGeW7uWI1qzYVCgny-93">
          <mxGeometry width="160" relative="1" as="geometry">
            <mxPoint x="-197.5" y="655" as="sourcePoint" />
            <mxPoint x="-150" y="380" as="targetPoint" />
          </mxGeometry>
        </mxCell>
        <mxCell id="e1KFGeW7uWI1qzYVCgny-95" value="Register an account" style="shape=ellipse;" vertex="1" parent="e1KFGeW7uWI1qzYVCgny-15">
          <mxGeometry x="350" y="450" width="140" height="59" as="geometry" />
        </mxCell>
        <mxCell id="e1KFGeW7uWI1qzYVCgny-96" value="Forgot Password" style="shape=ellipse;" vertex="1" parent="e1KFGeW7uWI1qzYVCgny-15">
          <mxGeometry x="270" y="609.9999999999995" width="120" height="47.75" as="geometry" />
        </mxCell>
        <mxCell id="e1KFGeW7uWI1qzYVCgny-97" value="" style="endArrow=none;html=1;rounded=0;entryX=0;entryY=0.5;entryDx=0;entryDy=0;" edge="1" parent="e1KFGeW7uWI1qzYVCgny-15" source="e1KFGeW7uWI1qzYVCgny-93" target="e1KFGeW7uWI1qzYVCgny-96">
          <mxGeometry relative="1" as="geometry">
            <mxPoint x="12.5" y="461" as="sourcePoint" />
            <mxPoint x="227.5" y="410" as="targetPoint" />
          </mxGeometry>
        </mxCell>
        <mxCell id="e1KFGeW7uWI1qzYVCgny-98" value="N" style="resizable=0;html=1;whiteSpace=wrap;align=right;verticalAlign=bottom;" connectable="0" vertex="1" parent="e1KFGeW7uWI1qzYVCgny-97">
          <mxGeometry x="1" relative="1" as="geometry" />
        </mxCell>
        <mxCell id="e1KFGeW7uWI1qzYVCgny-99" value="" style="endArrow=none;html=1;rounded=0;entryX=0;entryY=0.5;entryDx=0;entryDy=0;" edge="1" parent="e1KFGeW7uWI1qzYVCgny-15" source="e1KFGeW7uWI1qzYVCgny-93" target="e1KFGeW7uWI1qzYVCgny-95">
          <mxGeometry relative="1" as="geometry">
            <mxPoint x="22.5" y="471" as="sourcePoint" />
            <mxPoint x="237.5" y="420" as="targetPoint" />
          </mxGeometry>
        </mxCell>
        <mxCell id="e1KFGeW7uWI1qzYVCgny-100" value="1" style="resizable=0;html=1;whiteSpace=wrap;align=right;verticalAlign=bottom;" connectable="0" vertex="1" parent="e1KFGeW7uWI1qzYVCgny-99">
          <mxGeometry x="1" relative="1" as="geometry" />
        </mxCell>
        <mxCell id="e1KFGeW7uWI1qzYVCgny-101" value="" style="endArrow=none;html=1;rounded=0;entryX=0;entryY=0.25;entryDx=0;entryDy=0;" edge="1" parent="e1KFGeW7uWI1qzYVCgny-15" source="e1KFGeW7uWI1qzYVCgny-93" target="e1KFGeW7uWI1qzYVCgny-110">
          <mxGeometry relative="1" as="geometry">
            <mxPoint x="32.5" y="481" as="sourcePoint" />
            <mxPoint x="771" y="560" as="targetPoint" />
          </mxGeometry>
        </mxCell>
        <mxCell id="e1KFGeW7uWI1qzYVCgny-102" value="*" style="text;html=1;align=center;verticalAlign=middle;resizable=0;points=[];autosize=1;strokeColor=none;fillColor=none;" vertex="1" parent="e1KFGeW7uWI1qzYVCgny-15">
          <mxGeometry x="-232.5" y="523" width="30" height="30" as="geometry" />
        </mxCell>
        <mxCell id="e1KFGeW7uWI1qzYVCgny-103" value="&amp;lt;&amp;lt;include&amp;gt;&amp;gt;" style="endArrow=open;startArrow=none;endFill=0;startFill=0;endSize=8;html=1;verticalAlign=bottom;dashed=1;labelBackgroundColor=none;rounded=0;exitX=1;exitY=0.5;exitDx=0;exitDy=0;entryX=0.5;entryY=0;entryDx=0;entryDy=0;" edge="1" parent="e1KFGeW7uWI1qzYVCgny-15" source="e1KFGeW7uWI1qzYVCgny-95" target="e1KFGeW7uWI1qzYVCgny-108">
          <mxGeometry width="160" relative="1" as="geometry">
            <mxPoint x="460" y="390" as="sourcePoint" />
            <mxPoint x="823" y="538" as="targetPoint" />
          </mxGeometry>
        </mxCell>
        <mxCell id="e1KFGeW7uWI1qzYVCgny-104" value="&amp;lt;&amp;lt;include&amp;gt;&amp;gt;" style="endArrow=open;startArrow=none;endFill=0;startFill=0;endSize=8;html=1;verticalAlign=bottom;dashed=1;labelBackgroundColor=none;rounded=0;exitX=1;exitY=0.5;exitDx=0;exitDy=0;entryX=0.5;entryY=1;entryDx=0;entryDy=0;" edge="1" parent="e1KFGeW7uWI1qzYVCgny-15" source="e1KFGeW7uWI1qzYVCgny-96" target="e1KFGeW7uWI1qzYVCgny-107">
          <mxGeometry width="160" relative="1" as="geometry">
            <mxPoint x="500" y="490" as="sourcePoint" />
            <mxPoint x="823.3999999999069" y="581.1899999999441" as="targetPoint" />
          </mxGeometry>
        </mxCell>
        <mxCell id="e1KFGeW7uWI1qzYVCgny-105" value="&amp;lt;&amp;lt;include&amp;gt;&amp;gt;" style="endArrow=open;startArrow=none;endFill=0;startFill=0;endSize=8;html=1;verticalAlign=bottom;dashed=1;labelBackgroundColor=none;rounded=0;exitX=1;exitY=0.5;exitDx=0;exitDy=0;entryX=0.5;entryY=1;entryDx=0;entryDy=0;" edge="1" parent="e1KFGeW7uWI1qzYVCgny-15" source="e1KFGeW7uWI1qzYVCgny-51" target="e1KFGeW7uWI1qzYVCgny-95">
          <mxGeometry width="160" relative="1" as="geometry">
            <mxPoint x="510" y="500" as="sourcePoint" />
            <mxPoint x="790" y="580" as="targetPoint" />
          </mxGeometry>
        </mxCell>
        <mxCell id="e1KFGeW7uWI1qzYVCgny-106" value="&amp;lt;&amp;lt;include&amp;gt;&amp;gt;" style="endArrow=open;startArrow=none;endFill=0;startFill=0;endSize=8;html=1;verticalAlign=bottom;dashed=1;labelBackgroundColor=none;rounded=0;exitX=1;exitY=0.5;exitDx=0;exitDy=0;entryX=0.5;entryY=1;entryDx=0;entryDy=0;" edge="1" parent="e1KFGeW7uWI1qzYVCgny-15" source="e1KFGeW7uWI1qzYVCgny-37" target="e1KFGeW7uWI1qzYVCgny-50">
          <mxGeometry width="160" relative="1" as="geometry">
            <mxPoint x="504.25" y="1378.1799999999998" as="sourcePoint" />
            <mxPoint x="278.25" y="1121.1799999999998" as="targetPoint" />
          </mxGeometry>
        </mxCell>
        <mxCell id="e1KFGeW7uWI1qzYVCgny-107" value="" style="shape=ellipse;container=1;horizontal=1;horizontalStack=0;resizeParent=1;resizeParentMax=0;resizeLast=0;html=1;dashed=0;collapsible=0;" vertex="1" parent="e1KFGeW7uWI1qzYVCgny-15">
          <mxGeometry x="866" y="500" width="180" height="120" as="geometry" />
        </mxCell>
        <mxCell id="e1KFGeW7uWI1qzYVCgny-108" value="Log In" style="html=1;strokeColor=none;fillColor=none;align=center;verticalAlign=middle;rotatable=0;whiteSpace=wrap;" vertex="1" parent="e1KFGeW7uWI1qzYVCgny-107">
          <mxGeometry width="180" height="30" as="geometry" />
        </mxCell>
        <mxCell id="e1KFGeW7uWI1qzYVCgny-109" value="" style="line;strokeWidth=1;fillColor=none;rotatable=0;labelPosition=right;points=[];portConstraint=eastwest;dashed=0;resizeWidth=1;" vertex="1" parent="e1KFGeW7uWI1qzYVCgny-107">
          <mxGeometry x="9" y="30" width="162" height="10" as="geometry" />
        </mxCell>
        <mxCell id="e1KFGeW7uWI1qzYVCgny-110" value="extension points" style="text;html=1;align=center;verticalAlign=middle;rotatable=0;fillColor=none;strokeColor=none;whiteSpace=wrap;" vertex="1" parent="e1KFGeW7uWI1qzYVCgny-107">
          <mxGeometry y="40" width="180" height="30" as="geometry" />
        </mxCell>
        <mxCell id="e1KFGeW7uWI1qzYVCgny-111" value="&quot;Forgot Password&quot;&lt;br&gt;&quot;Don&#39;t have an account&quot;" style="text;html=1;align=left;verticalAlign=middle;rotatable=0;spacingLeft=25;fillColor=none;strokeColor=none;whiteSpace=wrap;" vertex="1" parent="e1KFGeW7uWI1qzYVCgny-107">
          <mxGeometry y="70" width="180" height="30" as="geometry" />
        </mxCell>
        <mxCell id="e1KFGeW7uWI1qzYVCgny-112" value="&amp;lt;&amp;lt;include&amp;gt;&amp;gt;" style="endArrow=open;startArrow=none;endFill=0;startFill=0;endSize=8;html=1;verticalAlign=bottom;dashed=1;labelBackgroundColor=none;rounded=0;exitX=1;exitY=0.5;exitDx=0;exitDy=0;entryX=0.5;entryY=1;entryDx=0;entryDy=0;" edge="1" parent="e1KFGeW7uWI1qzYVCgny-15" source="e1KFGeW7uWI1qzYVCgny-43" target="e1KFGeW7uWI1qzYVCgny-107">
          <mxGeometry width="160" relative="1" as="geometry">
            <mxPoint x="530" y="520" as="sourcePoint" />
            <mxPoint x="830" y="580" as="targetPoint" />
          </mxGeometry>
        </mxCell>
        <mxCell id="e1KFGeW7uWI1qzYVCgny-113" value="&amp;lt;&amp;lt;include&amp;gt;&amp;gt;" style="endArrow=open;startArrow=none;endFill=0;startFill=0;endSize=8;html=1;verticalAlign=bottom;dashed=1;labelBackgroundColor=none;rounded=0;exitX=1;exitY=0.5;exitDx=0;exitDy=0;entryX=0.5;entryY=1;entryDx=0;entryDy=0;" edge="1" parent="e1KFGeW7uWI1qzYVCgny-15" source="e1KFGeW7uWI1qzYVCgny-44" target="e1KFGeW7uWI1qzYVCgny-107">
          <mxGeometry width="160" relative="1" as="geometry">
            <mxPoint x="1076" y="857" as="sourcePoint" />
            <mxPoint x="850" y="600" as="targetPoint" />
          </mxGeometry>
        </mxCell>
        <mxCell id="e1KFGeW7uWI1qzYVCgny-114" value="&amp;lt;&amp;lt;extend&amp;gt;&amp;gt;" style="endArrow=open;startArrow=none;endFill=0;startFill=0;endSize=8;html=1;verticalAlign=bottom;dashed=1;labelBackgroundColor=none;rounded=0;exitX=0.5;exitY=0;exitDx=0;exitDy=0;entryX=0;entryY=0.25;entryDx=0;entryDy=0;" edge="1" parent="e1KFGeW7uWI1qzYVCgny-15" source="e1KFGeW7uWI1qzYVCgny-96" target="e1KFGeW7uWI1qzYVCgny-111">
          <mxGeometry width="160" relative="1" as="geometry">
            <mxPoint x="1086" y="867" as="sourcePoint" />
            <mxPoint x="860" y="610" as="targetPoint" />
          </mxGeometry>
        </mxCell>
        <mxCell id="e1KFGeW7uWI1qzYVCgny-115" value="" style="shape=note2;size=16;childLayout=stackLayout;horizontalStack=0;resizeParent=1;resizeParentMax=0;resizeLast=0;collapsible=0;marginBottom=0;html=1;container=1;" vertex="1" parent="e1KFGeW7uWI1qzYVCgny-15">
          <mxGeometry x="500.00000000000034" y="380" width="160" height="75" as="geometry" />
        </mxCell>
        <mxCell id="e1KFGeW7uWI1qzYVCgny-116" value="&amp;lt;&amp;lt;Condition&amp;gt;&amp;gt;" style="text;html=1;strokeColor=none;fillColor=none;align=left;verticalAlign=middle;spacingLeft=4;spacingRight=4;overflow=hidden;rotatable=0;points=[[0,0.5],[1,0.5]];portConstraint=eastwest;whiteSpace=wrap;" vertex="1" parent="e1KFGeW7uWI1qzYVCgny-115">
          <mxGeometry width="160" height="25" as="geometry" />
        </mxCell>
        <mxCell id="e1KFGeW7uWI1qzYVCgny-117" value="{ Remembers his email" style="text;html=1;strokeColor=none;fillColor=none;align=left;verticalAlign=middle;spacingLeft=4;spacingRight=4;overflow=hidden;rotatable=0;points=[[0,0.5],[1,0.5]];portConstraint=eastwest;whiteSpace=wrap;" vertex="1" parent="e1KFGeW7uWI1qzYVCgny-115">
          <mxGeometry y="25" width="160" height="25" as="geometry" />
        </mxCell>
        <mxCell id="e1KFGeW7uWI1qzYVCgny-118" value="and has access to it }" style="text;html=1;strokeColor=none;fillColor=none;align=left;verticalAlign=middle;spacingLeft=4;spacingRight=4;overflow=hidden;rotatable=0;points=[[0,0.5],[1,0.5]];portConstraint=eastwest;whiteSpace=wrap;" vertex="1" parent="e1KFGeW7uWI1qzYVCgny-115">
          <mxGeometry y="50" width="160" height="25" as="geometry" />
        </mxCell>
        <mxCell id="e1KFGeW7uWI1qzYVCgny-119" value="&amp;lt;&amp;lt;extend&amp;gt;&amp;gt;" style="endArrow=open;startArrow=none;endFill=0;startFill=0;endSize=8;html=1;verticalAlign=bottom;dashed=1;labelBackgroundColor=none;rounded=0;exitX=0.88;exitY=0.825;exitDx=0;exitDy=0;entryX=0;entryY=1;entryDx=0;entryDy=0;exitPerimeter=0;" edge="1" parent="e1KFGeW7uWI1qzYVCgny-15" source="e1KFGeW7uWI1qzYVCgny-95" target="e1KFGeW7uWI1qzYVCgny-108">
          <mxGeometry width="160" relative="1" as="geometry">
            <mxPoint x="340" y="620" as="sourcePoint" />
            <mxPoint x="876" y="588" as="targetPoint" />
          </mxGeometry>
        </mxCell>
        <mxCell id="e1KFGeW7uWI1qzYVCgny-120" value="" style="endArrow=none;html=1;rounded=0;entryX=0;entryY=0.5;entryDx=0;entryDy=0;" edge="1" parent="1" source="e1KFGeW7uWI1qzYVCgny-10" target="e1KFGeW7uWI1qzYVCgny-22">
          <mxGeometry relative="1" as="geometry">
            <mxPoint x="490" y="1009" as="sourcePoint" />
            <mxPoint x="705" y="958" as="targetPoint" />
          </mxGeometry>
        </mxCell>
        <mxCell id="e1KFGeW7uWI1qzYVCgny-121" value="*" style="resizable=0;html=1;whiteSpace=wrap;align=right;verticalAlign=bottom;" connectable="0" vertex="1" parent="e1KFGeW7uWI1qzYVCgny-120">
          <mxGeometry x="1" relative="1" as="geometry" />
        </mxCell>
        <mxCell id="e1KFGeW7uWI1qzYVCgny-122" value="" style="endArrow=none;html=1;rounded=0;entryX=0;entryY=0.5;entryDx=0;entryDy=0;" edge="1" parent="1" source="e1KFGeW7uWI1qzYVCgny-10" target="e1KFGeW7uWI1qzYVCgny-26">
          <mxGeometry relative="1" as="geometry">
            <mxPoint x="450" y="966" as="sourcePoint" />
            <mxPoint x="665" y="915" as="targetPoint" />
          </mxGeometry>
        </mxCell>
        <mxCell id="e1KFGeW7uWI1qzYVCgny-123" value="*" style="resizable=0;html=1;whiteSpace=wrap;align=right;verticalAlign=bottom;" connectable="0" vertex="1" parent="e1KFGeW7uWI1qzYVCgny-122">
          <mxGeometry x="1" relative="1" as="geometry" />
        </mxCell>
        <mxCell id="e1KFGeW7uWI1qzYVCgny-124" value="" style="endArrow=none;html=1;rounded=0;entryX=0;entryY=0.5;entryDx=0;entryDy=0;" edge="1" parent="1" source="e1KFGeW7uWI1qzYVCgny-10" target="e1KFGeW7uWI1qzYVCgny-19">
          <mxGeometry relative="1" as="geometry">
            <mxPoint x="460" y="976" as="sourcePoint" />
            <mxPoint x="675" y="925" as="targetPoint" />
          </mxGeometry>
        </mxCell>
        <mxCell id="e1KFGeW7uWI1qzYVCgny-125" value="*" style="resizable=0;html=1;whiteSpace=wrap;align=right;verticalAlign=bottom;" connectable="0" vertex="1" parent="e1KFGeW7uWI1qzYVCgny-124">
          <mxGeometry x="1" relative="1" as="geometry" />
        </mxCell>
        <mxCell id="e1KFGeW7uWI1qzYVCgny-126" value="" style="endArrow=none;html=1;rounded=0;entryX=0;entryY=0.5;entryDx=0;entryDy=0;" edge="1" parent="1" source="e1KFGeW7uWI1qzYVCgny-10" target="e1KFGeW7uWI1qzYVCgny-17">
          <mxGeometry relative="1" as="geometry">
            <mxPoint x="470" y="986" as="sourcePoint" />
            <mxPoint x="685" y="935" as="targetPoint" />
          </mxGeometry>
        </mxCell>
        <mxCell id="e1KFGeW7uWI1qzYVCgny-127" value="*" style="resizable=0;html=1;whiteSpace=wrap;align=right;verticalAlign=bottom;" connectable="0" vertex="1" parent="e1KFGeW7uWI1qzYVCgny-126">
          <mxGeometry x="1" relative="1" as="geometry" />
        </mxCell>
        <mxCell id="e1KFGeW7uWI1qzYVCgny-128" value="" style="endArrow=none;html=1;rounded=0;entryX=0;entryY=0.5;entryDx=0;entryDy=0;" edge="1" parent="1" source="e1KFGeW7uWI1qzYVCgny-10" target="e1KFGeW7uWI1qzYVCgny-20">
          <mxGeometry relative="1" as="geometry">
            <mxPoint x="480" y="996" as="sourcePoint" />
            <mxPoint x="695" y="945" as="targetPoint" />
          </mxGeometry>
        </mxCell>
        <mxCell id="e1KFGeW7uWI1qzYVCgny-129" value="*" style="resizable=0;html=1;whiteSpace=wrap;align=right;verticalAlign=bottom;" connectable="0" vertex="1" parent="e1KFGeW7uWI1qzYVCgny-128">
          <mxGeometry x="1" relative="1" as="geometry" />
        </mxCell>
        <mxCell id="e1KFGeW7uWI1qzYVCgny-130" value="" style="endArrow=none;html=1;rounded=0;entryX=0;entryY=0.5;entryDx=0;entryDy=0;" edge="1" parent="1" source="e1KFGeW7uWI1qzYVCgny-10" target="e1KFGeW7uWI1qzYVCgny-24">
          <mxGeometry relative="1" as="geometry">
            <mxPoint x="490" y="1006" as="sourcePoint" />
            <mxPoint x="705" y="955" as="targetPoint" />
          </mxGeometry>
        </mxCell>
        <mxCell id="e1KFGeW7uWI1qzYVCgny-131" value="*" style="resizable=0;html=1;whiteSpace=wrap;align=right;verticalAlign=bottom;" connectable="0" vertex="1" parent="e1KFGeW7uWI1qzYVCgny-130">
          <mxGeometry x="1" relative="1" as="geometry" />
        </mxCell>
        <mxCell id="e1KFGeW7uWI1qzYVCgny-132" value="" style="endArrow=none;html=1;rounded=0;entryX=0;entryY=0.5;entryDx=0;entryDy=0;" edge="1" parent="1" source="e1KFGeW7uWI1qzYVCgny-10" target="e1KFGeW7uWI1qzYVCgny-21">
          <mxGeometry relative="1" as="geometry">
            <mxPoint x="500" y="1016" as="sourcePoint" />
            <mxPoint x="715" y="965" as="targetPoint" />
          </mxGeometry>
        </mxCell>
        <mxCell id="e1KFGeW7uWI1qzYVCgny-133" value="*" style="resizable=0;html=1;whiteSpace=wrap;align=right;verticalAlign=bottom;" connectable="0" vertex="1" parent="e1KFGeW7uWI1qzYVCgny-132">
          <mxGeometry x="1" relative="1" as="geometry" />
        </mxCell>
        <mxCell id="e1KFGeW7uWI1qzYVCgny-134" value="" style="endArrow=none;html=1;rounded=0;entryX=0;entryY=0.5;entryDx=0;entryDy=0;" edge="1" parent="1" source="e1KFGeW7uWI1qzYVCgny-10" target="e1KFGeW7uWI1qzYVCgny-23">
          <mxGeometry relative="1" as="geometry">
            <mxPoint x="510" y="1026" as="sourcePoint" />
            <mxPoint x="725" y="975" as="targetPoint" />
          </mxGeometry>
        </mxCell>
        <mxCell id="e1KFGeW7uWI1qzYVCgny-135" value="*" style="resizable=0;html=1;whiteSpace=wrap;align=right;verticalAlign=bottom;" connectable="0" vertex="1" parent="e1KFGeW7uWI1qzYVCgny-134">
          <mxGeometry x="1" relative="1" as="geometry" />
        </mxCell>
        <mxCell id="e1KFGeW7uWI1qzYVCgny-136" value="Admin" style="shape=umlActor;verticalLabelPosition=bottom;verticalAlign=top;html=1;outlineConnect=0;" vertex="1" parent="1">
          <mxGeometry x="402.25" y="2050" width="30" height="59" as="geometry" />
        </mxCell>
        <mxCell id="e1KFGeW7uWI1qzYVCgny-137" style="edgeStyle=orthogonalEdgeStyle;rounded=0;orthogonalLoop=1;jettySize=auto;html=1;" edge="1" parent="1" source="e1KFGeW7uWI1qzYVCgny-136" target="e1KFGeW7uWI1qzYVCgny-35">
          <mxGeometry relative="1" as="geometry">
            <mxPoint x="415" y="1400" as="targetPoint" />
          </mxGeometry>
        </mxCell>
        <mxCell id="e1KFGeW7uWI1qzYVCgny-138" value="" style="endArrow=none;html=1;rounded=0;" edge="1" parent="1" source="e1KFGeW7uWI1qzYVCgny-136" target="e1KFGeW7uWI1qzYVCgny-33">
          <mxGeometry relative="1" as="geometry">
            <mxPoint x="442" y="1621" as="sourcePoint" />
            <mxPoint x="610" y="1801" as="targetPoint" />
          </mxGeometry>
        </mxCell>
        <mxCell id="e1KFGeW7uWI1qzYVCgny-139" value="N" style="resizable=0;html=1;whiteSpace=wrap;align=right;verticalAlign=bottom;" connectable="0" vertex="1" parent="e1KFGeW7uWI1qzYVCgny-138">
          <mxGeometry x="1" relative="1" as="geometry" />
        </mxCell>
        <mxCell id="e1KFGeW7uWI1qzYVCgny-140" value="" style="endArrow=none;html=1;rounded=0;entryX=0;entryY=0.5;entryDx=0;entryDy=0;" edge="1" parent="1" source="e1KFGeW7uWI1qzYVCgny-136" target="e1KFGeW7uWI1qzYVCgny-29">
          <mxGeometry relative="1" as="geometry">
            <mxPoint x="442" y="2087" as="sourcePoint" />
            <mxPoint x="640" y="2060" as="targetPoint" />
          </mxGeometry>
        </mxCell>
        <mxCell id="e1KFGeW7uWI1qzYVCgny-141" value="N" style="resizable=0;html=1;whiteSpace=wrap;align=right;verticalAlign=bottom;" connectable="0" vertex="1" parent="e1KFGeW7uWI1qzYVCgny-140">
          <mxGeometry x="1" relative="1" as="geometry" />
        </mxCell>
        <mxCell id="e1KFGeW7uWI1qzYVCgny-142" value="" style="endArrow=none;html=1;rounded=0;" edge="1" parent="1" source="e1KFGeW7uWI1qzYVCgny-136" target="e1KFGeW7uWI1qzYVCgny-34">
          <mxGeometry relative="1" as="geometry">
            <mxPoint x="442" y="2088" as="sourcePoint" />
            <mxPoint x="820" y="2040" as="targetPoint" />
          </mxGeometry>
        </mxCell>
        <mxCell id="e1KFGeW7uWI1qzYVCgny-143" value="*" style="resizable=0;html=1;whiteSpace=wrap;align=right;verticalAlign=bottom;" connectable="0" vertex="1" parent="e1KFGeW7uWI1qzYVCgny-142">
          <mxGeometry x="1" relative="1" as="geometry" />
        </mxCell>
        <mxCell id="e1KFGeW7uWI1qzYVCgny-144" value="" style="endArrow=none;html=1;rounded=0;" edge="1" parent="1" source="e1KFGeW7uWI1qzYVCgny-136" target="e1KFGeW7uWI1qzYVCgny-32">
          <mxGeometry relative="1" as="geometry">
            <mxPoint x="452" y="2098" as="sourcePoint" />
            <mxPoint x="830" y="2050" as="targetPoint" />
          </mxGeometry>
        </mxCell>
        <mxCell id="e1KFGeW7uWI1qzYVCgny-145" value="N" style="resizable=0;html=1;whiteSpace=wrap;align=right;verticalAlign=bottom;" connectable="0" vertex="1" parent="e1KFGeW7uWI1qzYVCgny-144">
          <mxGeometry x="1" relative="1" as="geometry" />
        </mxCell>
        <mxCell id="e1KFGeW7uWI1qzYVCgny-146" value="" style="endArrow=none;html=1;rounded=0;" edge="1" parent="1" source="e1KFGeW7uWI1qzYVCgny-136" target="e1KFGeW7uWI1qzYVCgny-28">
          <mxGeometry relative="1" as="geometry">
            <mxPoint x="462" y="2108" as="sourcePoint" />
            <mxPoint x="840" y="2060" as="targetPoint" />
          </mxGeometry>
        </mxCell>
        <mxCell id="e1KFGeW7uWI1qzYVCgny-147" value="N" style="resizable=0;html=1;whiteSpace=wrap;align=right;verticalAlign=bottom;" connectable="0" vertex="1" parent="e1KFGeW7uWI1qzYVCgny-146">
          <mxGeometry x="1" relative="1" as="geometry" />
        </mxCell>
        <mxCell id="e1KFGeW7uWI1qzYVCgny-148" value="" style="endArrow=none;html=1;rounded=0;" edge="1" parent="1" source="e1KFGeW7uWI1qzYVCgny-136" target="e1KFGeW7uWI1qzYVCgny-27">
          <mxGeometry relative="1" as="geometry">
            <mxPoint x="472" y="2118" as="sourcePoint" />
            <mxPoint x="850" y="2070" as="targetPoint" />
          </mxGeometry>
        </mxCell>
        <mxCell id="e1KFGeW7uWI1qzYVCgny-149" value="*" style="resizable=0;html=1;whiteSpace=wrap;align=right;verticalAlign=bottom;" connectable="0" vertex="1" parent="e1KFGeW7uWI1qzYVCgny-148">
          <mxGeometry x="1" relative="1" as="geometry" />
        </mxCell>
        <mxCell id="e1KFGeW7uWI1qzYVCgny-150" value="" style="endArrow=none;html=1;rounded=0;" edge="1" parent="1" source="e1KFGeW7uWI1qzYVCgny-136" target="e1KFGeW7uWI1qzYVCgny-31">
          <mxGeometry relative="1" as="geometry">
            <mxPoint x="482" y="2128" as="sourcePoint" />
            <mxPoint x="860" y="2080" as="targetPoint" />
          </mxGeometry>
        </mxCell>
        <mxCell id="e1KFGeW7uWI1qzYVCgny-151" value="N" style="resizable=0;html=1;whiteSpace=wrap;align=right;verticalAlign=bottom;" connectable="0" vertex="1" parent="e1KFGeW7uWI1qzYVCgny-150">
          <mxGeometry x="1" relative="1" as="geometry" />
        </mxCell>
        <mxCell id="e1KFGeW7uWI1qzYVCgny-152" value="" style="endArrow=none;html=1;rounded=0;" edge="1" parent="1" source="e1KFGeW7uWI1qzYVCgny-136" target="e1KFGeW7uWI1qzYVCgny-30">
          <mxGeometry relative="1" as="geometry">
            <mxPoint x="492" y="2138" as="sourcePoint" />
            <mxPoint x="870" y="2090" as="targetPoint" />
          </mxGeometry>
        </mxCell>
        <mxCell id="e1KFGeW7uWI1qzYVCgny-153" value="*" style="resizable=0;html=1;whiteSpace=wrap;align=right;verticalAlign=bottom;" connectable="0" vertex="1" parent="e1KFGeW7uWI1qzYVCgny-152">
          <mxGeometry x="1" relative="1" as="geometry" />
        </mxCell>
        <mxCell id="e1KFGeW7uWI1qzYVCgny-154" value="" style="endArrow=none;html=1;rounded=0;dashed=1;dashPattern=1 2;entryX=0.431;entryY=1.057;entryDx=0;entryDy=0;entryPerimeter=0;" edge="1" parent="1" target="e1KFGeW7uWI1qzYVCgny-118">
          <mxGeometry relative="1" as="geometry">
            <mxPoint x="1060" y="1240" as="sourcePoint" />
            <mxPoint x="1280" y="1260" as="targetPoint" />
          </mxGeometry>
        </mxCell>
        <mxCell id="e1KFGeW7uWI1qzYVCgny-155" value="" style="resizable=0;html=1;whiteSpace=wrap;align=right;verticalAlign=bottom;" connectable="0" vertex="1" parent="e1KFGeW7uWI1qzYVCgny-154">
          <mxGeometry x="1" relative="1" as="geometry" />
        </mxCell>
      </root>
    </mxGraphModel>
  </diagram>
</mxfile>
